<svg width="16" height="16" viewBox="0 0 16 16" fill="none" xmlns="http://www.w3.org/2000/svg">
<path fill-rule="evenodd" clip-rule="evenodd" d="M7.99992 14.6666C11.6818 14.6666 14.6666 11.6819 14.6666 7.99998C14.6666 4.31808 11.6818 1.33331 7.99992 1.33331C4.31802 1.33331 1.33325 4.31808 1.33325 7.99998C1.33325 11.6819 4.31802 14.6666 7.99992 14.6666ZM8.93112 7.99998L5.99992 11.06L6.90232 12L10.7423 7.99998L6.90232 3.99998L5.99992 4.93998L8.93112 7.99998Z" fill="#B9B9B9"/>
<mask id="mask0" mask-type="alpha" maskUnits="userSpaceOnUse" x="1" y="1" width="14" height="14">
<path fill-rule="evenodd" clip-rule="evenodd" d="M7.99992 14.6666C11.6818 14.6666 14.6666 11.6819 14.6666 7.99998C14.6666 4.31808 11.6818 1.33331 7.99992 1.33331C4.31802 1.33331 1.33325 4.31808 1.33325 7.99998C1.33325 11.6819 4.31802 14.6666 7.99992 14.6666ZM8.93112 7.99998L5.99992 11.06L6.90232 12L10.7423 7.99998L6.90232 3.99998L5.99992 4.93998L8.93112 7.99998Z" fill="white"/>
</mask>
<g mask="url(#mask0)">
</g>
</svg>
