<svg width="120" height="120" viewBox="0 0 120 120" fill="none" xmlns="http://www.w3.org/2000/svg">
<circle cx="60" cy="60" r="60" fill="#3C64B1" fill-opacity="0.1"/>
<path d="M90 41V39H78H70V37C70 33.141 66.859 30 63 30H57C53.141 30 50 33.141 50 37V39H42C41.447 39 41 39.447 41 40V59C41 59.633 41.13 60.234 41.346 60.792L30.75 63.532C30.309 63.646 30 64.044 30 64.5C30 64.956 30.309 65.354 30.75 65.468L44 68.894V74H33V76H44V78H36V80H44V82H39V84H44.839L59.684 88.948C59.786 88.982 59.894 89 60 89C60.106 89 60.214 88.982 60.316 88.948L75.316 83.948C75.725 83.812 76 83.431 76 83V68.894L86 66.308V80.763L84.105 84.552C83.964 84.833 83.964 85.165 84.105 85.447L86.105 89.447C86.275 89.786 86.621 90 87 90C87.379 90 87.725 89.786 87.895 89.447L89.895 85.447C90.036 85.166 90.036 84.834 89.895 84.552L88 80.764V65.791L89.25 65.468C89.691 65.354 90 64.956 90 64.5C90 64.044 89.691 63.646 89.25 63.532L78.654 60.791C78.87 60.234 79 59.633 79 59V49H84V47H79V45H87V43H79V41H90ZM87 86.764L86.118 85L87 83.236L87.882 85L87 86.764ZM52 37C52 34.243 54.243 32 57 32H63C65.757 32 68 34.243 68 37V39H66V37C66 35.346 64.654 34 63 34H57C55.346 34 54 35.346 54 37V39H52V37ZM64 39H56V37C56 36.448 56.448 36 57 36H63C63.552 36 64 36.448 64 37V39ZM43 41H77V45C77 46.654 75.654 48 74 48H72H68H64V45C64 44.447 63.553 44 63 44H57C56.447 44 56 44.447 56 45V48H52H48H46C44.346 48 43 46.654 43 45V41ZM77 59C77 59.68 76.764 60.3 76.382 60.804C76.376 60.811 76.367 60.816 76.361 60.824C76.22 61.007 76.061 61.169 75.889 61.312C75.881 61.319 75.873 61.326 75.864 61.332C75.708 61.459 75.54 61.564 75.364 61.657C75.334 61.672 75.306 61.691 75.276 61.705C75.115 61.783 74.946 61.84 74.773 61.887C74.731 61.898 74.692 61.916 74.65 61.925C74.439 61.972 74.222 62 74 62H46C45.778 62 45.561 61.972 45.349 61.924C45.306 61.915 45.267 61.897 45.226 61.886C45.054 61.839 44.884 61.782 44.724 61.704C44.693 61.69 44.665 61.671 44.635 61.656C44.46 61.564 44.291 61.458 44.136 61.332C44.128 61.325 44.12 61.318 44.111 61.312C43.939 61.169 43.78 61.007 43.639 60.824C43.633 60.816 43.625 60.812 43.618 60.804C43.236 60.3 43 59.68 43 59V48.974C43.838 49.609 44.87 50 46 50H47V53C47 53.553 47.447 54 48 54H52C52.553 54 53 53.553 53 53V50H57H63H67V53C67 53.553 67.447 54 68 54H72C72.553 54 73 53.553 73 53V50H74C75.13 50 76.162 49.609 77 48.974V59ZM49 50H51V52H49V50ZM62 48H58V46H62V48ZM69 50H71V52H69V50ZM74 82.279L60 86.946L46 82.279V69.412L59.75 72.968C59.832 72.989 59.916 73 60 73C60.084 73 60.168 72.989 60.25 72.968L74 69.412V82.279ZM60 70.967L34.993 64.5L42.497 62.559C42.954 63.009 43.495 63.37 44.096 63.619C44.207 63.665 44.326 63.688 44.439 63.726C44.629 63.789 44.815 63.86 45.014 63.9C45.335 63.965 45.665 64 46 64H74C74.335 64 74.665 63.965 74.986 63.9C75.185 63.86 75.371 63.788 75.561 63.726C75.675 63.688 75.794 63.665 75.904 63.619C76.505 63.37 77.047 63.009 77.503 62.559L85.007 64.5L60 70.967Z" fill="#3C64B1"/>
</svg>
