<svg width="120" height="120" viewBox="0 0 120 120" fill="none" xmlns="http://www.w3.org/2000/svg">
<circle cx="60" cy="60" r="60" fill="#3C64B1" fill-opacity="0.1"/>
<path d="M91.3262 45.6265C91.7295 45.4878 92 45.1079 92 44.6812C92 44.2544 91.7295 43.8745 91.3262 43.7358L60.3203 33.0542C60.1074 32.9819 59.8789 32.9819 59.668 33.0542L28.6738 43.7358C28.2705 43.8745 28 44.2544 28 44.6812C28 45.1079 28.2705 45.4878 28.6738 45.6265L41.7607 50.1367V62.8208C41.7607 63.2085 41.8897 63.7905 42.5039 64.3599C42.5977 64.4468 42.707 64.5142 42.8262 64.5601C42.949 64.6074 44.8329 65.3246 47.0857 65.956L39.7685 67.9692C36.0378 68.994 34.7564 73.6282 35.8262 77.5181C36.9139 81.4717 40.4601 84.7011 44.0967 83.6968L58.0382 79.861C59.9923 86.2934 59.6713 87.4565 60.7598 87.6714C61.1038 87.7444 61.5005 87.6187 61.7441 87.3042L65.0039 83.102C69.5476 84.7011 70.1911 85.5773 70.9893 84.8569C71.2705 84.604 71.3848 84.2134 71.2842 83.8481L69.3324 76.7536L83.7402 72.7895C83.7412 72.7895 83.7422 72.7895 83.7442 72.7886C83.7468 72.7878 83.7486 72.7858 83.7512 72.785C92.2526 70.8624 86.3257 55.6182 80.7901 59.7954C75.4974 63.7906 79.5018 70.2666 82.9492 68.2495C85.4435 66.7937 84.2414 63.2226 82.6553 64.0903C82.1699 64.355 81.9912 64.9614 82.2559 65.4468C82.7425 66.3407 81.4372 67.1312 80.9053 66.2769C79.1135 63.4088 81.7853 61.0754 82.7549 61.1274C85.0718 61.2971 86.0745 65.2804 85.9668 67.394C85.8447 69.7983 84.7988 70.5132 83.2129 70.8608C79.5943 71.8576 75.7674 65.9618 77.542 61.4087C78.7398 58.3314 81.1087 59.4453 80.6455 57.7593C80.4981 57.227 79.9453 56.9116 79.416 57.061C79.4151 57.061 79.4131 57.062 79.4112 57.062L77.5264 57.5806V50.3804L85.1875 47.7412V51.1303L82.5147 56.1118C82.1575 56.7739 82.6369 57.5845 83.3955 57.5845H88.9863C89.3379 57.5845 89.6631 57.3999 89.8438 57.0991C90.0244 56.7974 90.0342 56.4234 89.8682 56.1138L87.1875 51.0914V47.0522L91.3262 45.6265ZM85.0674 55.5845L86.1963 53.48L87.3193 55.5845H85.0674ZM59.9941 35.0571L87.9307 44.6812L59.9941 54.3052C54.071 52.2639 41.737 48.0132 32.0684 44.6812L59.9941 35.0571ZM75.9375 60.0923C73.9966 64.0146 75.5886 69.6069 79.2088 71.9624L67.3822 75.2062C64.4152 72.2443 62.9476 67.3311 64.2621 63.3045L75.9375 60.0923ZM54.619 65.9575C54.6288 67.1368 54.7261 68.3297 54.918 69.52C54.9971 70.0112 55.4219 70.3608 55.9043 70.3608C56.5227 70.3608 56.9903 69.8084 56.8926 69.2017C56.6875 67.9303 56.6024 66.6575 56.6251 65.4055L58.3526 64.9303C58.3628 66.1612 58.4694 67.4065 58.6777 68.648C58.7705 69.2014 59.299 69.5622 59.8291 69.4692C60.374 69.3774 60.7412 68.8618 60.6504 68.3179C60.4293 66.9985 60.337 65.6772 60.3603 64.3779L62.0117 63.9236C61.1171 67.9508 62.6092 72.7447 65.2572 75.8729L56.4434 78.2251C54.2442 74.6861 53.0986 70.5212 53.1768 66.3542L54.619 65.9575ZM43.5654 81.769C41.3076 82.3901 38.6387 80.2017 37.7539 76.9868C37.0145 74.3002 37.6595 70.6228 40.2998 69.897L48.0477 67.7654C48.0615 69.4794 48.2604 71.2127 48.6572 72.937C48.7819 73.4794 49.3249 73.812 49.8555 73.688C50.3945 73.564 50.7305 73.0278 50.6064 72.4898C50.2009 70.7256 50.0256 68.9548 50.0567 67.2127L51.189 66.9011C51.2152 71.0606 52.3507 75.186 54.4562 78.7727L43.5654 81.769ZM68.8262 82.4536C65.7186 81.4427 64.6535 80.293 63.8828 81.2847L61.3887 84.4995L59.9663 79.3305L67.4039 77.2842L68.8262 82.4536ZM75.5264 58.1309L59.8473 62.4448C59.7467 62.4725 50.998 64.8796 51.2275 64.8164C48.3986 64.438 44.6926 63.118 43.7607 62.7749V50.8259L59.668 56.3081C59.8874 56.3826 60.1111 56.3794 60.3193 56.3081L75.5264 51.0694V58.1309Z" fill="#3C64B1"/>
<path d="M59.9609 49.5923C62.6494 49.5923 64.8369 47.3872 64.8369 44.6773C64.8369 41.9712 62.6494 39.77 59.9609 39.77C57.2725 39.77 55.085 41.9712 55.085 44.6773C55.085 47.3872 57.2725 49.5923 59.9609 49.5923ZM59.9609 41.77C61.5469 41.77 62.8369 43.0737 62.8369 44.6773C62.8369 46.2847 61.5469 47.5923 59.9609 47.5923C58.375 47.5923 57.085 46.2847 57.085 44.6773C57.085 43.0737 58.375 41.77 59.9609 41.77Z" fill="#3C64B1"/>
</svg>
