<svg width="94" height="24" viewBox="0 0 94 24" fill="none" xmlns="http://www.w3.org/2000/svg">
<rect width="94" height="24" rx="12" fill="#0084F4"/>
<path fill-rule="evenodd" clip-rule="evenodd" d="M11.75 8.875C11.75 9.35825 11.3582 9.75 10.875 9.75C10.3918 9.75 10 9.35825 10 8.875C10 8.39175 10.3918 8 10.875 8C11.3582 8 11.75 8.39175 11.75 8.875ZM10 10.5H11.789V16H10V10.5ZM16.662 10.5645L16.6432 10.5584C16.6308 10.5543 16.6183 10.5502 16.605 10.5465C16.581 10.541 16.557 10.5365 16.5325 10.5325C16.4375 10.5135 16.3335 10.5 16.2115 10.5C15.1685 10.5 14.507 11.2585 14.289 11.5515V10.5H12.5V16H14.289V13C14.289 13 15.641 11.117 16.2115 12.5V16H18V12.2885C18 11.4575 17.4305 10.765 16.662 10.5645Z" fill="white"/>
<path d="M31.148 17H36.566V15.628H32.772V7.844H31.148V17ZM38.8203 8.922C39.3943 8.922 39.8143 8.544 39.8143 8.012C39.8143 7.466 39.3943 7.088 38.8203 7.088C38.2463 7.088 37.8263 7.466 37.8263 8.012C37.8263 8.544 38.2463 8.922 38.8203 8.922ZM38.0083 17H39.6183V10.126H38.0083V17ZM41.6724 17H43.2824V12.198C43.8564 11.638 44.2484 11.344 44.8504 11.344C45.6064 11.344 45.9284 11.764 45.9284 12.898V17H47.5384V12.688C47.5384 10.952 46.8944 9.958 45.4244 9.958C44.4864 9.958 43.7864 10.448 43.1704 11.05H43.1144L43.0024 10.126H41.6724V17ZM49.5064 17H51.0884V15.25L52.1664 14.018L53.9304 17H55.6804L53.0904 12.926L55.4424 10.126H53.6784L51.1304 13.29H51.0884V7.116H49.5064V17ZM56.0447 13.57C56.0447 15.838 57.5287 17.168 59.4327 17.168C60.3007 17.168 61.1267 16.86 61.7847 16.426L61.2387 15.418C60.7347 15.74 60.2307 15.922 59.6427 15.922C58.5367 15.922 57.7527 15.222 57.6127 13.976H61.9807C62.0227 13.808 62.0507 13.528 62.0507 13.22C62.0507 11.302 61.0707 9.958 59.2087 9.958C57.5987 9.958 56.0447 11.33 56.0447 13.57ZM57.5987 12.954C57.7387 11.806 58.4387 11.204 59.2507 11.204C60.1887 11.204 60.6507 11.862 60.6507 12.954H57.5987ZM63.1684 13.57C63.1684 15.838 64.2744 17.168 65.9964 17.168C66.7384 17.168 67.4384 16.762 67.9424 16.258H67.9984L68.1104 17H69.4404V7.116H67.8304V9.608L67.8864 10.714C67.3544 10.252 66.8644 9.958 66.0804 9.958C64.5824 9.958 63.1684 11.33 63.1684 13.57ZM64.8344 13.556C64.8344 12.114 65.5484 11.288 66.4304 11.288C66.8924 11.288 67.3544 11.442 67.8304 11.862V15.068C67.3684 15.6 66.9204 15.838 66.3884 15.838C65.3944 15.838 64.8344 15.04 64.8344 13.556ZM71.6168 17H73.2408V7.844H71.6168V17ZM75.4009 17H77.0109V12.198C77.5849 11.638 77.9769 11.344 78.5789 11.344C79.3349 11.344 79.6569 11.764 79.6569 12.898V17H81.2669V12.688C81.2669 10.952 80.6229 9.958 79.1529 9.958C78.2149 9.958 77.5149 10.448 76.8989 11.05H76.8429L76.7309 10.126H75.4009V17Z" fill="white"/>
</svg>
